<?xml version="1.0" encoding="UTF-8" standalone="no"?>
<svg width="128px" height="128px" viewBox="0 0 128 128" version="1.1" xmlns="http://www.w3.org/2000/svg" xmlns:xlink="http://www.w3.org/1999/xlink" xmlns:sketch="http://www.bohemiancoding.com/sketch/ns">
    <!-- Generator: Sketch 3.0.1 (7597) - http://www.bohemiancoding.com/sketch -->
    <title>Dispatcher</title>
    <description>Created with Sketch.</description>
    <defs></defs>
    <g id="Page-1" stroke="none" stroke-width="1" fill="none" fill-rule="evenodd" sketch:type="MSPage">
        <g id="Dispatcher" sketch:type="MSLayerGroup" transform="translate(4.000000, 4.000000)">
            <g id="arrow-6" transform="translate(41.000000, 55.000000)" stroke="#4A4A4A" sketch:type="MSShapeGroup">
                <path d="M20.4605787,4.34549933 L27.7570155,1.68981351 L25.9130773,7.97487547 L20.4605787,4.34549933 Z" id="Path-2" stroke-width="4" fill="#4A4A4A" transform="translate(24.998256, 5.496266) rotate(-70.000000) translate(-24.998256, -5.496266) "></path>
                <path d="M0.5,5.5 L24.0625,5.5" id="Line" stroke-width="3" stroke-linecap="square"></path>
            </g>
            <g id="arrow-7" transform="translate(56.168441, 41.557248) rotate(-36.000000) translate(-56.168441, -41.557248) translate(37.668441, 36.057248)" stroke="#4A4A4A" sketch:type="MSShapeGroup">
                <path d="M27.4605787,4.34549933 L34.7570155,1.68981351 L32.9130773,7.97487547 L27.4605787,4.34549933 Z" id="Path-2" stroke-width="4" fill="#4A4A4A" transform="translate(31.998256, 5.496266) rotate(-70.000000) translate(-31.998256, -5.496266) "></path>
                <path d="M0.294757025,5.20935646 L29.9013418,5.20935646" id="Line" stroke-width="3" stroke-linecap="square"></path>
            </g>
            <g id="arrow-8" transform="translate(56.168441, 79.442752) scale(1, -1) rotate(-36.000000) translate(-56.168441, -79.442752) translate(37.668441, 73.942752)" stroke="#4A4A4A" sketch:type="MSShapeGroup">
                <path d="M27.4605787,4.34549933 L34.7570155,1.68981351 L32.9130773,7.97487547 L27.4605787,4.34549933 Z" id="Path-2" stroke-width="4" fill="#4A4A4A" transform="translate(31.998256, 5.496266) rotate(-70.000000) translate(-31.998256, -5.496266) "></path>
                <path d="M0.294757025,5.20935646 L26.822257,5.20935646" id="Line" stroke-width="3" stroke-linecap="square"></path>
            </g>
            <rect id="Rectangle-14" stroke="#979797" fill="#4A4A4A" sketch:type="MSShapeGroup" x="72" y="20" width="21" height="21"></rect>
            <rect id="Rectangle-15" stroke="#979797" fill="#4A4A4A" sketch:type="MSShapeGroup" x="72" y="50" width="21" height="21"></rect>
            <rect id="Rectangle-19" stroke="#979797" fill="#4A4A4A" sketch:type="MSShapeGroup" x="22" y="50" width="21" height="21"></rect>
            <rect id="Rectangle-20" stroke="#979797" fill="#4A4A4A" sketch:type="MSShapeGroup" x="72" y="80" width="21" height="21"></rect>
            <circle id="Oval-14" stroke="#979797" stroke-width="4" sketch:type="MSShapeGroup" cx="60" cy="60" r="60"></circle>
        </g>
    </g>
</svg>