<?xml version="1.0" encoding="UTF-8" standalone="no"?>
<svg width="128px" height="128px" viewBox="0 0 128 128" version="1.1" xmlns="http://www.w3.org/2000/svg" xmlns:xlink="http://www.w3.org/1999/xlink" xmlns:sketch="http://www.bohemiancoding.com/sketch/ns">
    <!-- Generator: Sketch 3.0.1 (7597) - http://www.bohemiancoding.com/sketch -->
    <title>Storage</title>
    <description>Created with Sketch.</description>
    <defs></defs>
    <g id="Page-1" stroke="none" stroke-width="1" fill="none" fill-rule="evenodd" sketch:type="MSPage">
        <g id="Storage" sketch:type="MSLayerGroup" transform="translate(4.000000, 4.000000)">
            <g id="disks" transform="translate(31.000000, 28.000000)" stroke="#4A4A4A" stroke-width="3" sketch:type="MSShapeGroup">
                <g id="disk3" transform="translate(0.000000, 40.000000)">
                    <path d="M59,20 C59,22.7614237 45.7924001,25 29.5,25 C13.2075999,25 0,22.7614237 0,20 L0,7 L59,7 L59,20 Z" id="Oval-24" fill="#4A4A4A"></path>
                    <ellipse id="Oval-23" fill="#FFFFFF" cx="29.5" cy="5.5" rx="29.5" ry="5.5"></ellipse>
                </g>
                <g id="disk2" transform="translate(0.000000, 20.000000)">
                    <path d="M59,20 C59,22.7614237 45.7924001,25 29.5,25 C13.2075999,25 0,22.7614237 0,20 L0,7 L59,7 L59,20 Z" id="Oval-24" fill="#4A4A4A"></path>
                    <ellipse id="Oval-23" fill="#FFFFFF" cx="29.5" cy="5.5" rx="29.5" ry="5.5"></ellipse>
                </g>
                <g id="disk1">
                    <path d="M59,20 C59,22.7614237 45.7924001,25 29.5,25 C13.2075999,25 0,22.7614237 0,20 L0,7 L59,7 L59,20 Z" id="Oval-24" fill="#4A4A4A"></path>
                    <ellipse id="Oval-23" fill="#FFFFFF" cx="29.5" cy="5.5" rx="29.5" ry="5.5"></ellipse>
                </g>
            </g>
            <circle id="Oval-7" stroke="#979797" stroke-width="4" sketch:type="MSShapeGroup" cx="60" cy="60" r="60"></circle>
        </g>
    </g>
</svg>